<?xml version="1.0" encoding="UTF-8" standalone="no"?>
<!-- Created with Inkscape (http://www.inkscape.org/) -->

<svg
   xmlns:dc="http://purl.org/dc/elements/1.1/"
   xmlns:cc="http://creativecommons.org/ns#"
   xmlns:rdf="http://www.w3.org/1999/02/22-rdf-syntax-ns#"
   xmlns:svg="http://www.w3.org/2000/svg"
   xmlns="http://www.w3.org/2000/svg"
   xmlns:sodipodi="http://sodipodi.sourceforge.net/DTD/sodipodi-0.dtd"
   xmlns:inkscape="http://www.inkscape.org/namespaces/inkscape"
   version="1.1"
   width="510"
   height="72"
   id="svg3837"
   inkscape:version="0.48.3.1 r9886"
   sodipodi:docname="berners.svg">
  <sodipodi:namedview
     pagecolor="#ffffff"
     bordercolor="#666666"
     borderopacity="1"
     objecttolerance="10"
     gridtolerance="10"
     guidetolerance="10"
     inkscape:pageopacity="0"
     inkscape:pageshadow="2"
     inkscape:window-width="1920"
     inkscape:window-height="1036"
     id="namedview7"
     showgrid="false"
     inkscape:zoom="0.22425739"
     inkscape:cx="-2558.4869"
     inkscape:cy="163.62723"
     inkscape:window-x="0"
     inkscape:window-y="22"
     inkscape:window-maximized="1"
     inkscape:current-layer="svg3837" />
  <defs
     id="defs3839" />
  <metadata
     id="metadata3842">
    <rdf:RDF>
      <cc:Work
         rdf:about="">
        <dc:format>image/svg+xml</dc:format>
        <dc:type
           rdf:resource="http://purl.org/dc/dcmitype/StillImage" />
        <dc:title />
      </cc:Work>
    </rdf:RDF>
  </metadata>
  <g
     id="layer1"
     transform="matrix(2.7681845,0,0,2.7681845,-116.72771,-108.94853)">
    <path
       d="m 64.460093,51.592809 c 0.8325,0.12 1.73375,0.30375 2.7,0.555 0.9625,0.24875 1.86375,0.625 2.69875,1.125 0.835,0.5 1.53,1.13875 2.0925,1.9125 0.55875,0.775 0.8375,1.7475 0.8375,2.915 0,0.83375 -0.12,1.5725 -0.3575,2.215 -0.2375,0.64375 -0.54625,1.2 -0.9275,1.6625 -0.3825,0.465 -0.8225,0.85875 -1.3225,1.18125 -0.5025,0.32125 -1.0025,0.58875 -1.505,0.80375 -1.19125,0.47625 -2.54875,0.75125 -4.07375,0.8225 l -20.62875,0 0,-0.2875 3.5775,0 0,-24.4525 -3.5775,0 0,-0.28625 18.8775,0 c 1.405,0.0712 2.68125,0.31 3.82375,0.715 0.4775,0.19125 0.9425,0.4175 1.39625,0.68 0.45125,0.2625 0.85875,0.58875 1.21625,0.9825 0.35625,0.39375 0.64875,0.85125 0.87375,1.37625 0.22875,0.525 0.34125,1.1325 0.34125,1.8225 0,0.71625 -0.145,1.36 -0.43,1.93125 -0.285,0.5725 -0.64125,1.09 -1.0725,1.555 -0.42875,0.46625 -0.895,0.865 -1.395,1.19875 -0.5,0.33375 -0.97625,0.6075 -1.42875,0.8225 -0.45375,0.215 -0.84125,0.375 -1.16125,0.4825 -0.32375,0.10625 -0.50625,0.16 -0.555,0.16 z m -8.725,-11.5475 0,11.36875 0.395,0 c 1.2625,-0.0237 2.385,-0.23875 3.36,-0.64375 0.43,-0.1675 0.84625,-0.375 1.2525,-0.625 0.40375,-0.25125 0.76875,-0.5675 1.09125,-0.9475 0.32,-0.38125 0.5775,-0.8225 0.76625,-1.3225 0.1925,-0.50125 0.28625,-1.085 0.28625,-1.7525 l 0,-0.7875 c 0,-1.31 -0.26875,-2.3225 -0.80375,-3.0375 -0.5375,-0.715 -1.125,-1.23875 -1.77,-1.5725 -0.76125,-0.3825 -1.62,-0.60875 -2.575,-0.68 z m 1.7175,24.4525 c 1.24,-0.07 2.335,-0.3325 3.29,-0.785 0.40375,-0.19 0.8075,-0.44 1.215,-0.75125 0.40375,-0.30875 0.7625,-0.69125 1.0725,-1.14375 0.31,-0.45375 0.55875,-0.98375 0.74875,-1.5925 0.19375,-0.60625 0.28625,-1.315 0.28625,-2.125 0,-1.05 -0.15875,-1.9375 -0.48125,-2.665 -0.3225,-0.72625 -0.7225,-1.32875 -1.19875,-1.805 -0.47625,-0.47625 -0.99375,-0.84625 -1.5525,-1.1075 -0.56125,-0.2625 -1.08625,-0.4525 -1.57625,-0.5725 -0.48625,-0.11875 -0.89625,-0.19 -1.23125,-0.215 -0.335,-0.0225 -0.5125,-0.035 -0.53625,-0.035 l -1.75375,0 0,12.7975 z m 35.40125,-3.0025 c 0.47625,-0.6675 0.84625,-1.2875 1.1075,-1.85875 0.2625,-0.5725 0.4525,-1.10875 0.5725,-1.6075 0.1175,-0.50125 0.1825,-0.97875 0.195,-1.43 0.0125,-0.45375 0.02,-0.895 0.02,-1.32375 l 0.3225,0 0,9.51 -2.2175,0 -5.93625,0 -3.00375,0 -8.22125,0 -3.18,0 0,-0.2875 3.18,0 0,-24.4525 -3.18,0 0,-0.28625 3.18,0 8.22125,0 2.4675,0 8.1525,0 0,8.33 -0.3225,0 c 0,-0.52375 -0.0113,-1.00125 -0.0337,-1.43 -0.0275,-0.42875 -0.0888,-0.84625 -0.1975,-1.25125 -0.1075,-0.405 -0.26875,-0.8275 -0.4825,-1.26875 -0.21625,-0.44125 -0.51125,-0.93625 -0.895,-1.48375 -0.42875,-0.62 -0.87,-1.10875 -1.32125,-1.46625 -0.45375,-0.3575 -0.93625,-0.62 -1.44875,-0.78625 -0.5125,-0.1675 -1.06125,-0.2675 -1.645,-0.305 -0.5825,-0.0338 -1.19875,-0.0525 -1.84,-0.0525 l -2.43375,0 0,11.72625 1.5375,0 c 0.43,0 0.82375,-0.0112 1.18,-0.0362 0.3575,-0.0225 0.6975,-0.0888 1.02,-0.195 0.3225,-0.10875 0.615,-0.26875 0.87375,-0.4825 0.26375,-0.215 0.5275,-0.51375 0.78875,-0.895 0.405,-0.59625 0.725,-1.19 0.9675,-1.7875 0.23625,-0.59625 0.35625,-1.25125 0.35625,-1.96625 l 0.215,0 0.07,0 0,11.01125 -0.07,0 -0.215,0 c 0,-0.69125 -0.11375,-1.335 -0.3425,-1.93 -0.22375,-0.59625 -0.55125,-1.205 -0.98125,-1.825 -0.47875,-0.69 -1.025,-1.13125 -1.6425,-1.32125 -0.62,-0.19125 -1.36,-0.2875 -2.22,-0.2875 l -1.5375,0 0,12.44125 3.00375,0 c 0.6675,0 1.25125,-0.0163 1.7525,-0.0525 0.5,-0.035 0.97875,-0.1425 1.4325,-0.32125 0.45,-0.17875 0.89125,-0.47 1.32125,-0.87625 0.42875,-0.405 0.905,-0.99 1.43,-1.7525 m 25.352497,-7.00625 c 0.66875,0.7625 1.37875,1.71 2.12875,2.8425 0.75125,1.13125 1.4825,2.235 2.19875,3.30625 0.71625,1.0725 1.3625,1.99 1.94875,2.7525 0.58375,0.7625 1.0425,1.145 1.37625,1.145 l 0,0.25 -6.36375,0 c -1.265,0 -2.35375,-0.34 -3.27125,-1.01875 -0.91625,-0.67875 -1.75125,-1.53125 -2.5025,-2.55625 -0.75125,-1.025 -1.44875,-2.1225 -2.09,-3.29 -0.645,-1.1675 -1.325,-2.2525 -2.03875,-3.25375 -0.76375,-1.0725 -1.265,-1.82875 -1.50125,-2.27 -0.24,-0.44 -0.4425,-0.6725 -0.61,-0.69625 l 0,12.7975 3.57875,0 0,0.2875 -15.053747,0 0,-0.2875 3.61,0 0,-24.4525 -3.61,0 0,-0.28625 18.733747,0 c 1.47875,0.12 2.80125,0.405 3.9675,0.85875 0.5,0.21375 0.99,0.47 1.46625,0.76875 0.4775,0.2975 0.905,0.6675 1.28625,1.10875 0.38375,0.44 0.68625,0.95375 0.91125,1.53625 0.22875,0.585 0.34125,1.2575 0.34125,2.02 0,1.335 -0.3175,2.3775 -0.9475,3.12875 -0.63125,0.75 -1.365,1.31 -2.2,1.67875 -0.835,0.37 -1.6775,0.60375 -2.53875,0.6975 -0.85625,0.095 -1.49875,0.14375 -1.93,0.14375 l -0.465,0 -4.6475,0.035 c 1.145,0.025 2.24,0.13125 3.29,0.32125 0.90625,0.1925 1.8175,0.4725 2.73625,0.84125 0.91625,0.37 1.64875,0.89875 2.19625,1.59125 m -10.725,-14.40875 0,11.33375 2.18125,0 c 0.90625,0 1.665,-0.0662 2.27125,-0.19625 0.6075,-0.13125 1.09375,-0.36875 1.4675,-0.715 0.36875,-0.34625 0.62875,-0.81125 0.78375,-1.395 0.15625,-0.58375 0.2325,-1.33875 0.2325,-2.27 l 0,-0.78625 c 0,-1.31125 -0.29875,-2.36625 -0.895,-3.165 -0.5925,-0.7975 -1.25,-1.39875 -1.965,-1.80375 -0.8325,-0.4775 -1.775,-0.81125 -2.825,-1.0025 z m 44.4475,-0.32125 0,0.28625 -1.89625,0 c -0.47625,0 -0.87625,0.1675 -1.195,0.50125 -0.32375,0.3325 -0.485,0.7375 -0.485,1.215 l 0,23.02375 -0.32,0 c -0.55,0 -1.2525,-0.29875 -2.11,-0.89375 -0.8575,-0.59625 -1.805,-1.365 -2.84125,-2.30625 -1.0375,-0.9425 -2.12875,-2.01875 -3.27125,-3.235 -1.145,-1.21625 -2.26625,-2.455 -3.36375,-3.71875 -2.59625,-2.955 -5.36125,-6.315 -8.2925,-10.08125 l 0,18.2325 c 0,0.47625 0.15875,0.88125 0.48125,1.215 0.32375,0.33375 0.7225,0.5 1.2,0.5 l 1.89625,0 0,0.2875 -7.43875,0 0,-0.2875 1.86,0 c 0.47625,0 0.88125,-0.16625 1.215,-0.5 0.3325,-0.33375 0.5,-0.73875 0.5,-1.215 l 0,-18.4825 -1.46625,-1.50125 c -0.5475,-0.525 -1.065,-0.96625 -1.55375,-1.32375 -0.49,-0.3575 -0.92375,-0.64375 -1.305,-0.8575 -0.43,-0.2625 -0.835,-0.45375 -1.215,-0.5725 l 0,-0.28625 7.72125,0 c 0.525,0.0237 1.09625,0.13125 1.71625,0.32125 0.52375,0.1675 1.11875,0.41125 1.7875,0.73375 0.66625,0.3225 1.3575,0.7925 2.075,1.4125 0.7125,0.62 1.49375,1.34 2.34125,2.16375 0.845,0.82 1.695,1.69 2.55375,2.6075 0.86,0.91875 1.69875,1.84875 2.52,2.79 0.82375,0.94125 1.57625,1.8225 2.255,2.645 0.67875,0.8225 1.255,1.5625 1.73375,2.21625 0.47625,0.65625 0.80875,1.1625 1.00125,1.52 l 0,-14.4075 c 0,-0.4775 -0.16125,-0.8825 -0.48375,-1.215 -0.3225,-0.33375 -0.72,-0.50125 -1.19875,-0.50125 l -1.895,0 0,-0.28625 3.8975,0 z m 18.5625,21.73625 c 0.475,-0.6675 0.84375,-1.2875 1.1075,-1.85875 0.26125,-0.5725 0.4525,-1.10875 0.57125,-1.6075 0.1175,-0.50125 0.18375,-0.97875 0.19625,-1.43 0.0137,-0.45375 0.0187,-0.895 0.0187,-1.32375 l 0.3225,0 0,9.51 -2.21625,0 -5.935,0 -3.0025,0 -8.22375,0 -3.18125,0 0,-0.2875 3.18125,0 0,-24.4525 -3.18125,0 0,-0.28625 3.18125,0 8.22375,0 2.465,0 8.15125,0 0,8.33 -0.32125,0 c 0,-0.52375 -0.01,-1.00125 -0.0375,-1.43 -0.0238,-0.42875 -0.09,-0.84625 -0.195,-1.25125 -0.1075,-0.405 -0.26875,-0.8275 -0.48125,-1.26875 -0.2175,-0.44125 -0.5125,-0.93625 -0.89625,-1.48375 -0.42625,-0.62 -0.86875,-1.10875 -1.32,-1.46625 -0.45375,-0.3575 -0.935,-0.62 -1.4475,-0.78625 -0.51375,-0.1675 -1.0625,-0.2675 -1.6475,-0.305 -0.5825,-0.0338 -1.195,-0.0525 -1.83875,-0.0525 l -2.43125,0 0,11.72625 1.535,0 c 0.42875,0 0.8225,-0.0112 1.18125,-0.0362 0.35875,-0.0225 0.6975,-0.0888 1.01875,-0.195 0.32125,-0.10875 0.615,-0.26875 0.87375,-0.4825 0.26375,-0.215 0.5275,-0.51375 0.78875,-0.895 0.405,-0.59625 0.725,-1.19 0.96625,-1.7875 0.2363,-0.59625 0.3563,-1.25125 0.3563,-1.96625 l 0.215,0 0.0713,0 0,11.01125 -0.0713,0 -0.215,0 c 0,-0.69125 -0.1125,-1.335 -0.34125,-1.93 -0.225,-0.59625 -0.5525,-1.205 -0.98125,-1.825 -0.47625,-0.69 -1.02625,-1.13125 -1.64625,-1.32125 -0.6175,-0.19125 -1.3575,-0.2875 -2.21625,-0.2875 l -1.535,0 0,12.44125 3.0025,0 c 0.66625,0 1.25,-0.0163 1.75125,-0.0525 0.5,-0.035 0.9775,-0.1425 1.43125,-0.32125 0.4525,-0.17875 0.89125,-0.47 1.3225,-0.87625 0.42875,-0.405 0.905,-0.99 1.43,-1.7525 m 25.35375,-7.00625 c 0.66625,0.7625 1.37625,1.71 2.12625,2.8425 0.7525,1.13125 1.4825,2.235 2.2,3.30625 0.715,1.0725 1.3625,1.99 1.9475,2.7525 0.58375,0.7625 1.0425,1.145 1.3775,1.145 l 0,0.25 -6.365,0 c -1.265,0 -2.35125,-0.34 -3.27125,-1.01875 -0.915,-0.67875 -1.75,-1.53125 -2.5,-2.55625 -0.7525,-1.025 -1.45,-2.1225 -2.0925,-3.29 -0.645,-1.1675 -1.325,-2.2525 -2.03875,-3.25375 -0.76375,-1.0725 -1.2625,-1.82875 -1.50125,-2.27 -0.23875,-0.44 -0.44125,-0.6725 -0.6075,-0.69625 l 0,12.7975 3.57625,0 0,0.2875 -15.05375,0 0,-0.2875 3.61125,0 0,-24.4525 -3.61125,0 0,-0.28625 18.735,0 c 1.4775,0.12 2.79875,0.405 3.9675,0.85875 0.50125,0.21375 0.98875,0.47 1.465,0.76875 0.47875,0.2975 0.90625,0.6675 1.28625,1.10875 0.38125,0.44 0.68625,0.95375 0.91375,1.53625 0.225,0.585 0.33875,1.2575 0.33875,2.02 0,1.335 -0.3175,2.3775 -0.94625,3.12875 -0.6325,0.75 -1.365,1.31 -2.2,1.67875 -0.8325,0.37 -1.6775,0.60375 -2.53875,0.6975 -0.8575,0.095 -1.5,0.14375 -1.92875,0.14375 l -0.4675,0 -4.645,0.035 c 1.145,0.025 2.23875,0.13125 3.28875,0.32125 0.905,0.1925 1.81875,0.4725 2.73625,0.84125 0.9175,0.37 1.6475,0.89875 2.1975,1.59125 m -10.725,-14.40875 0,11.33375 2.18,0 c 0.905,0 1.665,-0.0662 2.27,-0.19625 0.60875,-0.13125 1.09875,-0.36875 1.4675,-0.715 0.36875,-0.34625 0.6275,-0.81125 0.78375,-1.395 0.15625,-0.58375 0.235,-1.33875 0.235,-2.27 l 0,-0.78625 c 0,-1.31125 -0.30125,-2.36625 -0.89375,-3.165 -0.59875,-0.7975 -1.2525,-1.39875 -1.9675,-1.80375 -0.83375,-0.4775 -1.775,-0.81125 -2.825,-1.0025 z m 33.07625,8.61625 c 2.285,1.12 3.9275,2.37875 4.91625,3.7725 0.98625,1.39375 1.485,2.96125 1.485,4.70125 0,1.19125 -0.2425,2.27 -0.715,3.235 -0.47875,0.96625 -1.14125,1.8 -1.985,2.5025 -0.85,0.70375 -1.83125,1.245 -2.9525,1.6275 -1.1175,0.38 -2.32125,0.5725 -3.61,0.5725 l -0.46375,0 c -1.14375,0 -2.27125,-0.21 -3.38,-0.62625 -1.105,-0.41875 -2.23375,-0.95875 -3.37875,-1.62625 -0.07,-0.0487 -0.1775,-0.0725 -0.3225,-0.0725 -0.25875,0 -0.51,0.1 -0.74875,0.305 -0.24,0.2025 -0.46375,0.435 -0.67875,0.69625 -0.26375,0.285 -0.50125,0.61875 -0.7175,1.00125 l -0.28375,0 -0.67875,-10.18875 0.28625,0 c 0.07,0.45125 0.165,0.94 0.2875,1.465 0.1175,0.45375 0.27625,0.96625 0.48125,1.5375 0.2025,0.57125 0.4925,1.1675 0.87375,1.7875 0.4075,0.69 0.87625,1.4175 1.41375,2.18125 0.535,0.7625 1.1625,1.35875 1.8775,1.7875 1.1175,0.6675 2.2625,1.10875 3.4325,1.32375 0.35625,0.07 0.75,0.10625 1.17875,0.10625 0.47875,0 0.9725,-0.0238 1.485,-0.0712 0.5125,-0.0488 0.97125,-0.155 1.37375,-0.3225 0.57375,-0.26125 1.00125,-0.56625 1.2875,-0.91125 0.285,-0.34625 0.43,-0.93625 0.43,-1.77 0,-0.5975 -0.26125,-1.19125 -0.78625,-1.7875 -0.525,-0.595 -1.21625,-1.1975 -2.07375,-1.805 -0.85875,-0.60875 -1.835,-1.23375 -2.93125,-1.8775 -1.09625,-0.64375 -2.22875,-1.31125 -3.39625,-2.0025 -1.93125,-1.1675 -3.33,-2.45375 -4.20125,-3.86 -0.87,-1.405 -1.30625,-2.9675 -1.30625,-4.68375 0,-2.02625 0.805,-3.545 2.41375,-4.5575 1.60875,-1.01375 3.975,-1.52 7.0975,-1.52 1.07125,0 2.14625,0.2025 3.2175,0.6075 1.0725,0.405 2.14625,0.88125 3.2175,1.43 0.14,0.0475 0.2375,0.0712 0.28625,0.0712 0.26125,0 0.5175,-0.0937 0.76875,-0.28625 0.24875,-0.19 0.48125,-0.41625 0.69625,-0.67875 0.26375,-0.28625 0.5,-0.61875 0.715,-1.00125 l 0.28875,0 0.82,7.7575 -0.28875,0 c -0.0675,-0.1425 -0.1775,-0.345 -0.31875,-0.6075 -0.12,-0.2375 -0.30375,-0.55375 -0.555,-0.9475 -0.24875,-0.39375 -0.56375,-0.89875 -0.9475,-1.5175 -0.095,-0.14375 -0.23125,-0.33625 -0.41,-0.57375 -0.18,-0.2375 -0.3875,-0.48875 -0.6275,-0.75 -0.23625,-0.2625 -0.4925,-0.525 -0.76875,-0.78625 -0.27375,-0.2625 -0.5275,-0.50125 -0.76875,-0.71625 -0.76,-0.4525 -1.595,-0.85125 -2.5,-1.1975 -0.90875,-0.345 -1.86,-0.53 -2.86125,-0.55375 -0.31,0 -0.6575,0.0412 -1.035,0.125 -0.38375,0.0838 -0.735,0.2325 -1.0575,0.44625 -0.32,0.21625 -0.59375,0.495 -0.82,0.84125 -0.2275,0.345 -0.34,0.76875 -0.34,1.26875 0,0.83375 0.59125,1.74 1.77,2.7175 1.1775,0.9775 3.115,2.12125 5.80875,3.43125"
       id="path30"
       style="fill:#ffffff;fill-opacity:1;fill-rule:evenodd;stroke:none"
       inkscape:connector-curvature="0" />
  </g>
</svg>
